HIERARCHY
ROOT Hips
{
	OFFSET 0.00000 0.00000 0.00000
	CHANNELS 6 Xposition Yposition Zposition Zrotation Yrotation Xrotation 
	JOINT LHipJoint
	{
		OFFSET 0 0 0
		CHANNELS 3 Zrotation Yrotation Xrotation
		JOINT LeftUpLeg
		{
			OFFSET 1.41496 -1.84582 0.78394
			CHANNELS 3 Zrotation Yrotation Xrotation
			JOINT LeftLeg
			{
				OFFSET 2.58040 -7.08960 0.00000
				CHANNELS 3 Zrotation Yrotation Xrotation
				JOINT LeftFoot
				{
					OFFSET 2.64719 -7.27309 0.00000
					CHANNELS 3 Zrotation Yrotation Xrotation
					JOINT LeftToeBase
					{
						OFFSET 0.20718 -0.56921 2.20259
						CHANNELS 3 Zrotation Yrotation Xrotation
						End Site
						{
							OFFSET 0.00000 -0.00000 1.14243
						}
					}
				}
			}
		}
	}
	JOINT RHipJoint
	{
		OFFSET 0 0 0
		CHANNELS 3 Zrotation Yrotation Xrotation
		JOINT RightUpLeg
		{
			OFFSET -1.40551 -1.84582 0.78394
			CHANNELS 3 Zrotation Yrotation Xrotation
			JOINT RightLeg
			{
				OFFSET -2.56572 -7.04926 0.00000
				CHANNELS 3 Zrotation Yrotation Xrotation
				JOINT RightFoot
				{
					OFFSET -2.57974 -7.08778 0.00000
					CHANNELS 3 Zrotation Yrotation Xrotation
					JOINT RightToeBase
					{
						OFFSET -0.26704 -0.73369 2.20815
						CHANNELS 3 Zrotation Yrotation Xrotation
						End Site
						{
							OFFSET -0.00000 -0.00000 1.16246
						}
					}
				}
			}
		}
	}
	JOINT LowerBack
	{
		OFFSET 0 0 0
		CHANNELS 3 Zrotation Yrotation Xrotation
		JOINT Spine
		{
			OFFSET -0.04690 2.05196 -0.07017
			CHANNELS 3 Zrotation Yrotation Xrotation
			JOINT Spine1
			{
				OFFSET 0.04085 2.05260 0.00800
				CHANNELS 3 Zrotation Yrotation Xrotation
				JOINT Neck
				{
					OFFSET 0 0 0
					CHANNELS 3 Zrotation Yrotation Xrotation
					JOINT Neck1
					{
						OFFSET -0.03582 1.80995 0.19301
						CHANNELS 3 Zrotation Yrotation Xrotation
						JOINT Head
						{
							OFFSET 0.00952 1.80195 -0.36389
							CHANNELS 3 Zrotation Yrotation Xrotation
							End Site
							{
								OFFSET 0.00392 1.85062 -0.14494
							}
						}
					}
				}
				JOINT LeftShoulder
				{
					OFFSET 0 0 0
					CHANNELS 3 Zrotation Yrotation Xrotation
					JOINT LeftArm
					{
						OFFSET 3.55224 1.39726 -0.13667
						CHANNELS 3 Zrotation Yrotation Xrotation
						JOINT LeftForeArm
						{
							OFFSET 5.14507 -0.00000 -0.00000
							CHANNELS 3 Zrotation Yrotation Xrotation
							JOINT LeftHand
							{
								OFFSET 3.50646 -0.00000 0.00000
								CHANNELS 3 Zrotation Yrotation Xrotation
								JOINT LeftFingerBase
								{
									OFFSET 0 0 0
									CHANNELS 3 Zrotation Yrotation Xrotation
									JOINT LeftHandIndex1
									{
										OFFSET 0.62997 -0.00000 0.00000
										CHANNELS 3 Zrotation Yrotation Xrotation
										End Site
										{
											OFFSET 0.50790 -0.00000 0.00000
										}
									}
								}
								JOINT LThumb
								{
									OFFSET 0 0 0
									CHANNELS 3 Zrotation Yrotation Xrotation
									End Site
									{
										OFFSET 0.51565 -0.00000 0.51565
									}
								}
							}
						}
					}
				}
				JOINT RightShoulder
				{
					OFFSET 0 0 0
					CHANNELS 3 Zrotation Yrotation Xrotation
					JOINT RightArm
					{
						OFFSET -3.06467 1.61290 -0.28813
						CHANNELS 3 Zrotation Yrotation Xrotation
						JOINT RightForeArm
						{
							OFFSET -5.23200 -0.00000 -0.00000
							CHANNELS 3 Zrotation Yrotation Xrotation
							JOINT RightHand
							{
								OFFSET -3.65641 -0.00000 0.00000
								CHANNELS 3 Zrotation Yrotation Xrotation
								JOINT RightFingerBase
								{
									OFFSET 0 0 0
									CHANNELS 3 Zrotation Yrotation Xrotation
									JOINT RightHandIndex1
									{
										OFFSET -0.65681 -0.00000 0.00000
										CHANNELS 3 Zrotation Yrotation Xrotation
										End Site
										{
											OFFSET -0.52953 -0.00000 0.00000
										}
									}
								}
								JOINT RThumb
								{
									OFFSET 0 0 0
									CHANNELS 3 Zrotation Yrotation Xrotation
									End Site
									{
										OFFSET -0.53762 -0.00000 0.53762
									}
								}
							}
						}
					}
				}
			}
		}
	}
}
MOTION
Frames: 14
Frame Time: 0.0444444
0.00 0.00 0.00 -184.1100 30.9185 -125.1620 0.0000 0.0000 0.0000 -20.7432 -13.4361 -65.5747 13.1752 18.8445 69.6687 -2.1610 -25.2356 5.6571 0.0649 -1.6439 -4.5226 0.0000 0.0000 0.0000 -2.8085 15.0315 -97.5579 -21.4265 -19.9511 94.1741 -0.5490 -9.9077 -20.9124 -2.9101 10.5481 -30.7706 2.6596 -3.4476 42.7446 2.3485 0.2572 13.4606 0.9437 1.0848 -5.1886 -1.0051 -2.1830 -6.3849 -1.3288 -1.6866 -27.3973 -0.3490 0.5575 -7.4007 -0.0000 -0.0000 0.0000 -54.0632 -68.1344 29.5588 8.7078 -14.6935 -1.1248 -0.0000 -0.0000 6.6134 11.7203 10.4620 2.1574 -7.1250 0.0000 -0.0000 -13.4375 40.2950 1.5916 -0.0000 -0.0000 0.0000 44.8131 54.8263 33.6142 -14.5177 23.4700 -3.0312 0.0000 0.0000 13.4181 -7.7143 -11.3390 1.5256 7.1250 -0.0000 -0.0000 17.0841 -40.8044 1.8281
0.00 0.00 0.00 -183.3030 31.6318 -127.2200 0.0000 0.0000 0.0000 -22.7236 -10.6540 -51.9642 9.4865 17.1108 57.7580 -0.3978 -18.8496 23.1180 0.0995 2.0346 5.6013 0.0000 0.0000 0.0000 -2.0570 15.4689 -102.1105 -17.5882 -19.8600 82.9326 -0.6625 -8.1229 -20.4124 -3.4328 11.3647 -33.5201 2.5139 -3.4859 42.4475 3.0944 0.2880 13.7535 1.7997 1.1001 -4.7929 -0.3590 -1.4955 -5.6887 -2.6426 -1.1193 -26.4126 -0.8935 0.7408 -7.1905 0.0000 0.0000 0.0000 -64.4156 -61.2938 36.8527 8.8366 -14.8997 -1.1577 -0.0000 -0.0000 0.9063 -2.1689 13.8289 -0.5186 -7.1250 0.0000 -0.0000 -26.2407 42.1763 1.9794 0.0000 0.0000 0.0000 51.9916 49.9007 41.8034 -15.6557 25.0516 -3.4989 0.0000 0.0000 14.0642 -10.0054 -11.7219 2.0528 7.1250 -0.0000 -0.0000 15.2262 -41.3824 1.3948
0.00 0.00 0.00 -183.3490 33.8103 -131.9470 0.0000 0.0000 0.0000 -25.5320 -10.5683 -31.8107 5.7896 14.2213 44.1315 2.6963 -5.1577 33.1591 0.3017 3.5318 9.7629 0.0000 0.0000 0.0000 1.8965 15.2677 -102.4924 -11.9621 -18.3746 65.8686 -0.6476 0.4573 -15.0560 -4.8579 13.2220 -40.2052 0.3169 -2.9190 42.8367 3.7277 0.1941 13.6294 3.6305 0.9971 -5.0547 0.0089 -0.8102 -4.5046 -3.8113 -0.6103 -23.8399 -1.3005 0.7790 -6.5275 0.0000 0.0000 0.0000 -74.0339 -47.8575 40.6578 10.3270 -17.2495 -1.5705 -0.0000 -0.0000 10.2202 -5.6488 8.3901 -0.8268 -7.1250 0.0000 -0.0000 -27.0649 36.9842 5.8761 0.0000 0.0000 0.0000 60.3061 39.5618 49.4672 -17.8853 28.0100 -4.4952 0.0000 0.0000 12.6057 -16.6926 -11.5808 3.4450 7.1250 -0.0000 -0.0000 9.3667 -41.8689 0.7306
0.00 0.00 0.00 -182.5790 34.2262 -137.6580 0.0000 0.0000 0.0000 -28.9736 -13.6206 -15.7314 8.3303 16.3569 53.7440 1.6452 5.4161 23.1066 0.1759 2.7016 7.4489 0.0000 0.0000 0.0000 8.3070 14.4831 -98.1850 -9.5606 -17.1552 58.0093 -0.1808 0.0394 -8.0169 -3.7270 11.7880 -34.9859 -0.6621 -2.1731 40.9734 4.2503 0.3601 12.1695 4.6182 1.0020 -6.1697 0.9101 -0.4507 -4.2852 -4.2568 -0.2575 -20.7236 -1.5498 0.6853 -5.5527 -0.0000 0.0000 0.0000 -81.6811 -25.3676 42.9731 14.7870 -23.8485 -3.1393 -0.0000 -0.0000 5.3955 10.4225 5.6838 1.0437 -7.1250 0.0000 -0.0000 -13.5271 35.4808 3.2383 -0.0000 0.0000 0.0000 66.0011 18.6063 56.6112 -21.1676 32.0234 -6.1386 0.0000 0.0000 15.6701 -23.6206 -8.3503 3.6339 7.1250 -0.0000 -0.0000 2.8231 -39.0667 0.4131
0.00 0.00 0.00 -180.8380 32.1539 -137.8230 0.0000 0.0000 0.0000 -26.9783 -14.3462 -18.5374 13.3268 18.8970 70.1375 1.3546 0.6918 21.7981 0.1259 2.2876 6.3012 0.0000 0.0000 0.0000 8.4672 13.9328 -96.1617 -11.7725 -18.2928 65.2660 -0.0969 -7.0280 -12.0315 -2.7580 10.2927 -29.9297 1.4354 -2.3756 38.2658 4.5866 0.5670 11.1218 3.7996 1.0589 -6.4973 1.1505 -0.5724 -4.9408 -4.4211 -0.3273 -21.0173 -1.6475 0.6951 -5.5394 -0.0000 -0.0000 0.0000 -82.5992 -16.1179 45.0928 17.1118 -27.0049 -4.1380 -0.0000 0.0000 -1.3044 15.5353 5.5642 1.5440 -7.1250 0.0000 -0.0000 -9.3127 35.6240 2.1691 -0.0000 -0.0000 0.0000 67.4457 8.5441 57.8423 -21.9784 32.9526 -6.5741 0.0000 0.0000 15.9394 -23.8904 -7.0692 3.1202 7.1250 -0.0000 -0.0000 2.4746 -37.6934 0.4454
0.00 0.00 0.00 -179.0920 29.3298 -136.7430 0.0000 0.0000 0.0000 -22.9775 -15.2853 -26.6547 19.3302 19.9892 88.0414 0.8554 -5.1951 20.1033 0.0743 1.7587 4.8393 0.0000 0.0000 0.0000 9.2590 12.8590 -93.3218 -13.9045 -19.0848 71.9127 -0.1554 -11.0186 -17.7821 -2.4670 9.7776 -28.2595 3.6812 -2.7548 35.1035 5.0450 0.4689 9.9600 3.1068 0.9345 -6.7951 0.9505 -0.6541 -5.7935 -4.6476 -0.2579 -22.3535 -1.7177 0.9002 -5.8231 0.0000 0.0000 0.0000 -82.9397 -8.1782 43.0765 18.7230 -29.0730 -4.8955 -0.0000 -0.0000 3.4800 14.4322 4.3843 1.1271 -7.1250 0.0000 -0.0000 -10.0502 34.3698 2.6562 0.0000 0.0000 0.0000 68.6927 0.7296 58.0162 -21.7217 32.6611 -6.4350 0.0000 0.0000 17.2128 -23.0219 -6.3051 2.6719 7.1250 -0.0000 -0.0000 3.1474 -36.8097 0.6349
0.00 0.00 0.00 -176.7600 26.4305 -134.9150 0.0000 0.0000 0.0000 -16.8850 -14.3612 -41.6179 25.3752 19.2927 105.8963 0.0417 -7.7184 11.8521 0.0073 -0.5518 -1.5162 0.0000 0.0000 0.0000 12.4315 11.8570 -85.7535 -14.8050 -19.3403 74.6487 -0.4892 -14.2424 -24.9255 -3.2694 11.1190 -32.6821 4.4421 -2.5094 31.5993 5.1225 0.4433 8.7521 2.9753 0.8141 -7.4077 0.6576 -0.6769 -6.9396 -4.3170 0.1401 -24.4542 -1.6263 1.3284 -6.3090 0.0000 0.0000 0.0000 -82.6177 1.4007 37.9850 21.1717 -32.0282 -6.1407 -0.0000 -0.0000 7.9530 13.3818 4.3149 1.0254 -7.1250 0.0000 -0.0000 -10.8936 34.2549 2.9167 0.0000 0.0000 0.0000 72.1940 -6.6732 53.0561 -20.0732 30.7304 -5.5687 0.0000 0.0000 21.0512 -21.9796 -5.8659 2.3621 7.1250 -0.0000 -0.0000 3.9858 -36.2773 0.8565
0.00 0.00 0.00 -171.5540 21.3717 -135.8750 0.0000 0.0000 0.0000 -8.1967 -12.4152 -64.9796 27.5049 18.5922 112.4502 0.0477 -5.0715 -4.9488 1.1807 -6.8964 -19.4088 0.0000 0.0000 0.0000 21.2382 8.2954 -62.1222 -12.5093 -18.5978 67.5944 -0.1140 -16.3947 -24.3017 -4.9863 13.3683 -40.7633 6.3405 -2.4022 30.2618 4.4639 0.8378 7.6310 0.9888 0.9124 -8.0345 0.5212 -0.8998 -7.0604 -1.9020 0.8190 -27.1070 -0.9123 1.7796 -7.1788 0.0000 0.0000 0.0000 -81.8724 13.4751 32.3418 27.2025 -38.3716 -9.6246 -0.0000 0.0000 -3.7581 20.1580 8.1143 2.9661 -7.1250 0.0000 -0.0000 -5.7762 38.5559 0.9204 0.0000 0.0000 0.0000 80.0915 -16.9832 36.0918 -20.2392 30.9295 -5.6538 0.0000 0.0000 13.6637 -20.9229 -7.7109 2.9366 7.1250 -0.0000 -0.0000 5.0719 -38.1826 0.8541
0.00 0.00 0.00 -169.9250 18.6376 -139.0240 0.0000 0.0000 0.0000 -6.3765 -15.4007 -74.8886 23.2706 19.7416 99.6024 0.4424 -6.0127 -11.9383 1.9559 -8.7736 -25.0897 0.0000 0.0000 0.0000 24.2308 2.5022 -44.1911 -9.2905 -16.9910 57.0893 0.6005 -14.7504 -11.6625 -5.1744 13.5776 -41.5708 5.9344 -1.9865 28.3283 4.3161 1.0411 7.8218 0.9695 1.0503 -6.8899 -0.1353 -1.1687 -6.1221 -0.2131 0.6341 -25.8792 -0.2142 1.5100 -6.9280 0.0000 -0.0000 0.0000 -84.1083 17.9503 29.2541 30.9766 -41.7159 -12.0542 -0.0000 0.0000 -5.5122 20.0329 7.8394 2.8472 -7.1250 0.0000 -0.0000 -5.8476 38.2569 0.9750 0.0000 -0.0000 0.0000 82.0241 -20.3335 28.3696 -20.2742 30.9712 -5.6718 0.0000 0.0000 11.9815 -18.7116 -4.9900 1.6875 7.1250 -0.0000 -0.0000 6.6174 -35.1842 1.6043
0.00 0.00 0.00 -168.7070 15.9919 -141.7480 0.0000 0.0000 0.0000 -6.1894 -17.3061 -76.6989 16.9215 19.7712 80.9660 0.5737 -9.5179 -14.1086 1.4998 -7.7356 -21.9137 0.0000 0.0000 0.0000 25.4010 -2.3745 -29.1403 -5.8458 -14.2773 44.3599 0.7409 -18.8960 5.3104 -2.7833 10.3357 -30.0708 6.1209 -1.6978 26.3284 4.6834 1.3012 7.7256 1.1837 1.1960 -6.0242 -0.3141 -1.2053 -5.2717 0.4081 0.2732 -22.9715 0.0747 1.0622 -6.1115 -0.0000 -0.0000 0.0000 -86.0145 20.2155 29.3012 34.2734 -44.2863 -14.3037 -0.0000 0.0000 -10.0272 20.9057 7.0712 2.6922 -7.1250 0.0000 -0.0000 -5.0128 37.5014 0.9280 -0.0000 -0.0000 0.0000 82.0043 -20.9256 22.7486 -19.0181 29.4412 -5.0397 0.0000 0.0000 14.6774 -17.8263 -2.8886 0.9284 7.1250 -0.0000 -0.0000 7.1222 -32.9551 2.1159
0.00 0.00 0.00 -167.0070 14.3671 -143.0450 0.0000 0.0000 0.0000 -5.9904 -17.7275 -76.1485 11.5989 18.2159 64.7117 0.4908 -11.6377 -13.9235 1.0840 -6.6173 -18.5865 0.0000 0.0000 0.0000 26.1235 -4.3134 -18.2090 -3.8252 -11.9242 35.4642 0.8596 -24.2936 10.5770 -1.3073 7.2430 -20.4372 6.8613 -1.2626 24.4183 5.1077 1.8533 7.3116 1.0739 1.4503 -5.5170 -0.3574 -1.1464 -4.9743 0.6655 0.0726 -20.3840 0.1970 0.7750 -5.3340 -0.0000 -0.0000 0.0000 -87.2426 21.6712 29.7194 37.3830 -46.4407 -16.5170 -0.0000 0.0000 -11.1721 22.1886 5.9026 2.4018 -7.1250 0.0000 -0.0000 -3.8138 36.3283 0.8147 -0.0000 -0.0000 0.0000 81.6048 -20.4927 18.1532 -17.8694 27.9897 -4.4878 0.0000 0.0000 13.8852 -17.8081 -3.4679 1.1131 7.1250 -0.0000 -0.0000 7.1949 -33.5578 2.0322
0.00 0.00 0.00 -164.3200 13.6886 -144.0080 0.0000 0.0000 0.0000 -4.6659 -17.5585 -74.2455 6.9338 15.2759 48.6235 0.4222 -11.0122 -12.9893 0.7740 -5.6172 -15.6778 0.0000 0.0000 0.0000 26.7815 -4.6559 -8.1980 -2.7646 -10.3038 29.9662 1.5994 -28.6364 9.5416 -0.7736 5.6160 -15.6742 7.9695 -0.6515 22.4517 5.5764 2.6964 6.9106 0.7564 1.8576 -4.9151 -0.6022 -0.9138 -5.1342 0.8713 0.1397 -17.3339 0.3481 0.6703 -4.8703 -0.0000 -0.0000 0.0000 -88.8534 22.9929 29.0347 41.3501 -48.8498 -19.4499 -0.0000 0.0000 -9.8145 23.1310 4.2558 1.8157 -7.1250 0.0000 -0.0000 -2.9044 34.5947 0.7426 -0.0000 -0.0000 0.0000 80.7023 -19.4024 13.7554 -16.9875 26.8413 -4.0817 0.0000 0.0000 12.4996 -17.9853 -4.8000 1.5560 7.1250 -0.0000 -0.0000 7.1949 -34.9525 1.7869
0.00 0.00 0.00 -158.9560 14.6570 -145.5950 0.0000 0.0000 0.0000 -0.0828 -17.0101 -68.8779 2.6518 10.1089 29.3300 0.4712 -3.3969 -12.2490 0.1816 -2.7445 -7.5683 0.0000 0.0000 0.0000 26.2543 -3.1196 3.6646 -2.9440 -10.6038 30.9550 1.0939 -28.7863 13.5210 -0.4500 4.3035 -11.9322 10.0157 0.1417 19.1637 6.2151 3.7283 6.2256 0.1503 2.3672 -3.8317 -0.7826 0.3049 -5.1301 0.8519 1.2899 -12.6921 0.3737 1.0093 -3.1949 -0.0000 0.0000 0.0000 -93.0788 25.4618 24.6466 51.1009 -53.4300 -27.0559 -0.0000 0.0000 -9.8394 23.2990 3.1559 1.3581 -7.1250 0.0000 -0.0000 -2.7021 33.4065 0.7687 -0.0000 0.0000 0.0000 77.3528 -16.9490 11.7299 -16.6694 26.4199 -3.9391 0.0000 0.0000 12.4982 -18.6145 -6.7158 2.2557 7.1250 -0.0000 -0.0000 6.9045 -36.9848 1.3695
0.00 0.00 0.00 -156.0310 17.8714 -147.5470 0.0000 0.0000 0.0000 -2.4990 -13.5726 -65.7496 2.5246 9.8825 28.5972 0.3023 -2.7876 -9.7980 0.0120 0.7061 1.9404 0.0000 0.0000 0.0000 21.7314 -0.1535 6.4705 -6.1348 -14.5577 45.5205 0.2747 -24.2632 15.1893 -0.6563 5.1816 -14.4271 9.8552 0.6910 15.7419 6.0859 3.7389 5.0886 0.2044 2.2666 -3.2254 0.1618 2.2716 -6.0419 0.4120 3.3999 -6.7053 0.1231 1.8502 -1.0668 0.0000 0.0000 0.0000 -95.3471 25.9035 21.3382 58.8004 -55.9817 -33.3449 -0.0000 0.0000 -12.5609 24.5292 4.5417 2.0695 -7.1250 0.0000 -0.0000 -1.7649 34.9655 0.4351 0.0000 0.0000 0.0000 74.0832 -14.2563 13.8539 -18.4907 28.7809 -4.7832 0.0000 0.0000 12.0976 -18.6475 -7.3750 2.4804 7.1250 -0.0000 -0.0000 6.9639 -37.6757 1.2629
